<svg width="1800" height="1549" viewBox="0 0 1800 1549" fill="none" xmlns="http://www.w3.org/2000/svg">
<path d="M900.231 1548.38C885.42 1548.38 871.535 1540.62 864.129 1527.83L5.55413 61.6247C-1.85138 48.8432 -1.85138 33.3229 5.55413 20.5415C12.9596 7.76013 26.8449 0 41.6559 0H1758.34C1773.15 0 1787.04 7.76013 1794.45 20.5415C1801.85 33.3229 1801.85 48.8432 1794.45 61.6247L935.871 1527.83C928.465 1540.62 914.58 1548.38 899.769 1548.38H900.231ZM113.859 81.7097L900.231 1425.13L1686.6 81.7097H113.859Z" fill="white"/>
<path d="M920.608 1507.29H879.416L879.878 538.642L31.4854 58.8832L51.8506 23.2778L921.072 514.906L920.608 1507.29Z" fill="white"/>
<path d="M1747.52 22.2692L889.556 507.656L910.283 543.292L1768.25 57.9054L1747.52 22.2692Z" fill="white"/>
</svg>
