<svg width="1800" height="1538" viewBox="0 0 1800 1538" fill="none" xmlns="http://www.w3.org/2000/svg">
<path d="M900.231 1537.84C885.42 1537.84 871.535 1530.13 864.129 1517.44L5.55413 61.2052C-1.85138 48.5108 -1.85138 33.0961 5.55413 20.4017C12.9596 7.70732 26.8449 0 41.6559 0H1758.34C1773.15 0 1787.04 7.70732 1794.45 20.4017C1801.85 33.0961 1801.85 48.5108 1794.45 61.2052L935.871 1517.44C928.465 1530.13 914.58 1537.84 899.769 1537.84H900.231ZM113.859 81.1536L900.231 1415.43L1686.6 81.1536H113.859Z" fill="black"/>
<path d="M920.607 1497.03H879.415L879.877 534.976L31.4844 58.4822L51.8496 23.1191L921.071 511.401L920.607 1497.03Z" fill="black"/>
<path d="M1747.52 22.1176L889.556 504.201L910.283 539.595L1768.25 57.5113L1747.52 22.1176Z" fill="black"/>
</svg>
