<svg width="3908" height="354" viewBox="0 0 3908 354" fill="none" xmlns="http://www.w3.org/2000/svg">
<path d="M145.52 139.978C170.889 127.958 192.494 104.223 192.494 70.4457C192.494 36.6686 175.907 0.152832 97.1528 0.152832H0V353.443H110.255C193.469 353.443 241.14 311.906 241.14 239.331C241.14 185.927 204.341 148.498 145.381 139.978H145.52ZM111.51 338.837H33.3135V151.846H98.8255C172.701 151.846 207.129 179.841 207.129 239.94C207.129 306.429 175.907 338.837 111.51 338.837ZM161.271 70.5979C161.271 114.721 135.484 137.087 84.7474 137.087H33.3135V14.9113H94.2257C139.387 14.9113 161.271 33.1692 161.271 70.5979Z" fill="black"/>
<path d="M386.802 159.149H498.312V144.39H386.802V14.9113H538.595V0.152832H353.628V353.443H538.595V338.837H386.802V159.149Z" fill="black"/>
<path d="M630.865 14.9113H729.412V353.443H762.725V14.9113H861.272V0.152832H630.865V14.9113Z" fill="black"/>
<path d="M997.043 0.152832H963.729V353.443H997.043V0.152832Z" fill="black"/>
<path d="M1337.83 296.387L1143.95 0.152832H1104.08L1120.53 25.1053V353.443H1134.05V45.4933L1337.14 353.443H1351.35V0.152832H1337.83V296.387Z" fill="black"/>
<path d="M1605.74 0.152832H1569.22L1577.86 21.3016L1443.91 353.443H1458.96L1531.44 172.842H1639.89L1713.76 353.443H1750.28L1605.74 0.152832ZM1537.16 158.236L1584.97 38.9509L1633.75 158.236H1537.16Z" fill="black"/>
<path d="M2483.88 297.452L2384.08 0.152832H2348.54L2366.52 53.7093L2281.49 297.604L2181.83 0.152832H2146.42L2265.04 353.443H2276.75L2373.62 75.0102L2467.15 353.443H2478.86L2601.8 0.152832H2587.31L2483.88 297.452Z" fill="black"/>
<path d="M2731.85 159.149H2843.36V144.39H2731.85V14.9113H2883.64V0.152832H2698.53V353.443H2883.64V338.837H2731.85V159.149Z" fill="black"/>
<path d="M3146.1 139.977C3171.47 127.957 3193.08 104.222 3193.08 70.4451C3193.08 36.668 3176.49 0 3097.6 0H3000.44V353.29H3110.7C3193.91 353.29 3241.58 311.754 3241.58 239.178C3241.58 185.774 3204.78 148.345 3145.82 139.825L3146.1 139.977ZM3112.09 338.836H3033.9V151.845H3099.41C3173.28 151.845 3207.71 179.84 3207.71 239.939C3207.71 306.428 3176.49 338.836 3112.09 338.836ZM3161.85 70.5972C3161.85 114.72 3136.07 137.086 3085.33 137.086H3033.9V14.9106H3094.81C3139.97 14.9106 3161.85 33.1685 3161.85 70.5972Z" fill="black"/>
<path d="M3387.39 159.149H3498.9V144.39H3387.39V14.9113H3539.18V0.152832H3354.21V353.443H3539.18V338.837H3387.39V159.149Z" fill="black"/>
<path d="M3844.71 221.073C3843.32 218.183 3842.06 215.444 3840.81 212.857C3829.8 189.122 3820.74 169.495 3791.05 160.518C3832.58 147.738 3851.96 121.416 3851.68 78.6618C3851.26 29.5176 3816.14 0.152832 3757.45 0.152832H3655.98V353.443H3689.29L3690.13 169.799H3746.44C3785.89 169.799 3792.72 184.862 3807.63 218.03C3809.31 221.682 3810.98 225.486 3812.79 229.442L3870.92 353.595H3907.3L3844.71 221.226V221.073ZM3752.72 14.9113C3798.71 14.9113 3820.18 35.1471 3820.6 78.8139C3820.74 100.419 3815.72 116.699 3804.99 128.567C3788.68 146.52 3743.24 155.193 3697.94 155.193H3690.27L3689.43 15.0634H3752.72V14.9113Z" fill="black"/>
<path d="M1932.88 304.603C1930.92 304.603 1929.25 303.538 1928.28 301.712L1818.02 93.1159C1817.05 91.2901 1817.05 89.16 1818.02 87.3342C1819 85.5084 1820.67 84.4434 1822.62 84.4434H2043.27C2045.22 84.4434 2046.89 85.5084 2047.87 87.3342C2048.85 89.16 2048.85 91.2901 2047.87 93.1159L1937.61 301.712C1936.64 303.538 1934.97 304.603 1933.02 304.603H1932.88ZM1831.82 96.1588L1932.88 287.258L2033.93 96.1588H1831.82Z" fill="black"/>
<path d="M1935.53 298.819H1930.23L1930.37 161.124L1821.37 92.8095L1824.02 87.7886L1935.66 157.625L1935.53 298.819Z" fill="black"/>
<path d="M2041.82 87.6483L1931.55 156.692L1934.19 161.708L2044.46 92.6634L2041.82 87.6483Z" fill="black"/>
</svg>
