<svg width="169" height="169" viewBox="0 0 169 169" fill="none" xmlns="http://www.w3.org/2000/svg">
<path d="M79.0841 78.92V88.9583L50.9876 93.8041C43.3583 94.7271 35.6106 95.1888 27.7477 95.1888H0V72.6895H27.7477C35.6106 72.6895 43.3583 73.2664 50.9876 74.4203L79.0841 78.92Z" fill="white"/>
<path d="M83.9377 76.8433L77.0031 84.1121L53.7632 67.8436C47.5202 62.9975 41.7383 57.8056 36.4206 52.2673L16.6479 32.5374L32.6044 16.6147L52.028 36.3448C57.5763 41.8832 62.7819 47.7673 67.6355 53.9978L83.9377 76.8433Z" fill="white"/>
<path d="M89.1403 78.9199H79.0842L74.2275 51.2287C73.3023 43.3829 72.8381 35.6523 72.8381 28.0374V0H95.3863V28.0374C95.3863 35.6523 94.807 43.3829 93.6512 51.2287L89.1403 78.9199Z" fill="white"/>
<path d="M91.2213 84.1121L83.9377 76.8433L100.24 53.9978C105.097 47.7673 110.299 41.8832 115.85 36.3448L135.62 16.6147L151.576 32.5374L131.804 52.2673C126.255 57.8056 120.358 62.9975 114.115 67.8436L91.2213 84.1121Z" fill="white"/>
<path d="M89.1403 88.9583V78.92L116.891 74.4203C124.751 73.2664 132.498 72.6895 140.128 72.6895H168.224V95.1888H140.128C132.498 95.1888 124.751 94.7271 116.891 93.8041L89.1403 88.9583Z" fill="white"/>
<path d="M83.9377 91.0349L91.2213 84.1122L114.115 100.381C120.358 105.227 126.255 110.419 131.804 115.957L151.576 135.341L135.62 151.264L115.85 131.533C110.299 126.226 105.097 120.457 100.24 114.227L83.9377 91.0349Z" fill="white"/>
<path d="M79.0842 88.958H89.1403L93.6512 116.995C94.807 124.611 95.3863 132.341 95.3863 140.187V168.224H72.8381V140.187C72.8381 132.341 73.3023 124.611 74.2275 116.995L79.0842 88.958Z" fill="white"/>
<path d="M77.0031 84.1122L83.9377 91.0349L67.6355 114.227C62.7819 120.457 57.5763 126.226 52.028 131.533L32.6044 151.264L16.6479 135.341L36.4206 115.957C41.7383 110.419 47.5202 105.227 53.7632 100.381L77.0031 84.1122Z" fill="white"/>
<path d="M79.0841 78.92V88.9583L50.9876 93.8041C43.3583 94.7271 35.6106 95.1888 27.7477 95.1888H0V72.6895H27.7477C35.6106 72.6895 43.3583 73.2664 50.9876 74.4203L79.0841 78.92Z" fill="white"/>
<path d="M83.9377 76.8433L77.0031 84.1121L53.7632 67.8436C47.5202 62.9975 41.7383 57.8056 36.4206 52.2673L16.6479 32.5374L32.6044 16.6147L52.028 36.3448C57.5763 41.8832 62.7819 47.7673 67.6355 53.9978L83.9377 76.8433Z" fill="white"/>
<path d="M89.1403 78.9199H79.0842L74.2275 51.2287C73.3023 43.3829 72.8381 35.6523 72.8381 28.0374V0H95.3863V28.0374C95.3863 35.6523 94.807 43.3829 93.6512 51.2287L89.1403 78.9199Z" fill="white"/>
<path d="M91.2213 84.1121L83.9377 76.8433L100.24 53.9978C105.097 47.7673 110.299 41.8832 115.85 36.3448L135.62 16.6147L151.576 32.5374L131.804 52.2673C126.255 57.8056 120.358 62.9975 114.115 67.8436L91.2213 84.1121Z" fill="white"/>
<path d="M89.1403 88.9583V78.92L116.891 74.4203C124.751 73.2664 132.498 72.6895 140.128 72.6895H168.224V95.1888H140.128C132.498 95.1888 124.751 94.7271 116.891 93.8041L89.1403 88.9583Z" fill="white"/>
<path d="M83.9377 91.0349L91.2213 84.1122L114.115 100.381C120.358 105.227 126.255 110.419 131.804 115.957L151.576 135.341L135.62 151.264L115.85 131.533C110.299 126.226 105.097 120.457 100.24 114.227L83.9377 91.0349Z" fill="white"/>
<path d="M79.0842 88.958H89.1403L93.6512 116.995C94.807 124.611 95.3863 132.341 95.3863 140.187V168.224H72.8381V140.187C72.8381 132.341 73.3023 124.611 74.2275 116.995L79.0842 88.958Z" fill="white"/>
<path d="M77.0031 84.1122L83.9377 91.0349L67.6355 114.227C62.7819 120.457 57.5763 126.226 52.028 131.533L32.6044 151.264L16.6479 135.341L36.4206 115.957C41.7383 110.419 47.5202 105.227 53.7632 100.381L77.0031 84.1122Z" fill="white"/>
<path d="M92.6106 83.4199C92.6106 88.6118 88.0996 93.1118 82.8971 93.1118C77.6947 93.1118 73.5327 88.6118 73.5327 83.4199C73.5327 78.2277 77.6947 73.728 82.8971 73.728C88.0996 73.728 92.6106 78.2277 92.6106 83.4199Z" fill="white"/>
</svg>
