<svg width="1000" height="324" viewBox="0 0 1000 324" fill="none" xmlns="http://www.w3.org/2000/svg">
<g clip-path="url(#clip0_1_44)">
<mask id="mask0_1_44" style="mask-type:luminance" maskUnits="userSpaceOnUse" x="0" y="0" width="1000" height="324">
<path d="M1000 0H0V323.988H1000V0Z" fill="white"/>
</mask>
<g mask="url(#mask0_1_44)">
<path d="M788.162 100.959H741.121C738.629 95.3517 737.072 89.4327 734.268 84.1367C708.411 35.5386 631.464 31.1772 590.966 62.3299C533.645 106.255 532.71 222.766 594.081 263.888C628.037 286.629 685.981 287.252 719.003 262.33C742.368 244.261 750.779 214.043 749.221 185.071H647.04V145.507H791.589V318.093H753.894L750.467 277.595C707.788 336.473 610.28 335.227 556.698 291.925C480.997 230.866 482.866 91.3018 559.19 31.4888C634.579 -27.3898 771.34 -3.40229 788.162 100.959Z" fill="white"/>
<path fill-rule="evenodd" clip-rule="evenodd" d="M492.835 318.093H445.794L417.134 241.458H289.408L261.371 318.093H215.888L328.972 6.25501L378.505 5.63196L492.835 318.093ZM404.673 203.14L353.583 60.1492L303.115 203.14H404.673Z" fill="white"/>
<path d="M231.464 5.00897V46.7536H138.318V318.093H93.1464V46.7536H0V5.00897H231.464Z" fill="white"/>
<path d="M910.86 85.1505V95.1888L882.763 100.035C875.134 100.958 867.386 101.419 859.523 101.419H831.776V78.9199H859.523C867.386 78.9199 875.134 79.4969 882.763 80.6508L910.86 85.1505Z" fill="white"/>
<path d="M915.713 83.0738L908.779 90.3427L885.539 74.0741C879.296 69.228 873.514 64.0361 868.196 58.4978L848.424 38.7679L864.38 22.8453L883.804 42.5754C889.352 48.1137 894.558 53.9978 899.411 60.2283L915.713 83.0738Z" fill="white"/>
<path d="M920.916 85.1505H910.86L906.003 57.4592C905.078 49.6134 904.614 41.8829 904.614 34.2679V6.23053H927.162V34.2679C927.162 41.8829 926.583 49.6134 925.427 57.4592L920.916 85.1505Z" fill="white"/>
<path d="M922.997 90.3427L915.713 83.0738L932.016 60.2283C936.872 53.9978 942.075 48.1137 947.626 42.5754L967.396 22.8453L983.352 38.7679L963.579 58.4978C958.031 64.0361 952.134 69.228 945.891 74.0741L922.997 90.3427Z" fill="white"/>
<path d="M920.916 95.1888V85.1505L948.667 80.6508C956.527 79.4969 964.274 78.9199 971.903 78.9199H1000V101.419H971.903C964.274 101.419 956.527 100.958 948.667 100.035L920.916 95.1888Z" fill="white"/>
<path d="M915.713 97.2654L922.997 90.3427L945.891 106.611C952.134 111.457 958.031 116.649 963.579 122.188L983.352 141.571L967.396 157.494L947.626 137.764C942.075 132.456 936.872 126.688 932.016 120.457L915.713 97.2654Z" fill="white"/>
<path d="M910.86 95.1885H920.916L925.427 123.226C926.583 130.841 927.162 138.572 927.162 146.417V174.455H904.614V146.417C904.614 138.572 905.078 130.841 906.003 123.226L910.86 95.1885Z" fill="white"/>
<path d="M908.779 90.3427L915.713 97.2654L899.411 120.457C894.558 126.688 889.352 132.456 883.804 137.764L864.38 157.494L848.424 141.571L868.196 122.188C873.514 116.649 879.296 111.457 885.539 106.611L908.779 90.3427Z" fill="white"/>
<path d="M910.86 85.1505V95.1888L882.763 100.035C875.134 100.958 867.386 101.419 859.523 101.419H831.776V78.9199H859.523C867.386 78.9199 875.134 79.4969 882.763 80.6508L910.86 85.1505Z" fill="white"/>
<path d="M915.713 83.0738L908.779 90.3427L885.539 74.0741C879.296 69.228 873.514 64.0361 868.196 58.4978L848.424 38.7679L864.38 22.8453L883.804 42.5754C889.352 48.1137 894.558 53.9978 899.411 60.2283L915.713 83.0738Z" fill="white"/>
<path d="M920.916 85.1505H910.86L906.003 57.4592C905.078 49.6134 904.614 41.8829 904.614 34.2679V6.23053H927.162V34.2679C927.162 41.8829 926.583 49.6134 925.427 57.4592L920.916 85.1505Z" fill="white"/>
<path d="M922.997 90.3427L915.713 83.0738L932.016 60.2283C936.872 53.9978 942.075 48.1137 947.626 42.5754L967.396 22.8453L983.352 38.7679L963.579 58.4978C958.031 64.0361 952.134 69.228 945.891 74.0741L922.997 90.3427Z" fill="white"/>
<path d="M920.916 95.1888V85.1505L948.667 80.6508C956.527 79.4969 964.274 78.9199 971.903 78.9199H1000V101.419H971.903C964.274 101.419 956.527 100.958 948.667 100.035L920.916 95.1888Z" fill="white"/>
<path d="M915.713 97.2654L922.997 90.3427L945.891 106.611C952.134 111.457 958.031 116.649 963.579 122.188L983.352 141.571L967.396 157.494L947.626 137.764C942.075 132.456 936.872 126.688 932.016 120.457L915.713 97.2654Z" fill="white"/>
<path d="M910.86 95.1885H920.916L925.427 123.226C926.583 130.841 927.162 138.572 927.162 146.417V174.455H904.614V146.417C904.614 138.572 905.078 130.841 906.003 123.226L910.86 95.1885Z" fill="white"/>
<path d="M908.779 90.3427L915.713 97.2654L899.411 120.457C894.558 126.688 889.352 132.456 883.804 137.764L864.38 157.494L848.424 141.571L868.196 122.188C873.514 116.649 879.296 111.457 885.539 106.611L908.779 90.3427Z" fill="white"/>
<path d="M924.386 89.6505C924.386 94.8424 919.875 99.3424 914.673 99.3424C909.47 99.3424 905.308 94.8424 905.308 89.6505C905.308 84.4582 909.47 79.9586 914.673 79.9586C919.875 79.9586 924.386 84.4582 924.386 89.6505Z" fill="white"/>
</g>
</g>
<defs>
<clipPath id="clip0_1_44">
<rect width="1000" height="323.988" fill="white"/>
</clipPath>
</defs>
</svg>
