<svg width="1000" height="324" viewBox="0 0 1000 324" fill="none" xmlns="http://www.w3.org/2000/svg">
<g clip-path="url(#clip0_1_130)">
<mask id="mask0_1_130" style="mask-type:luminance" maskUnits="userSpaceOnUse" x="0" y="0" width="1000" height="324">
<path d="M1000 0H0V324H1000V0Z" fill="white"/>
</mask>
<g mask="url(#mask0_1_130)">
<path d="M788.162 100.963H741.121C738.629 95.3554 737.072 89.4361 734.268 84.14C708.411 35.54 631.464 31.1785 590.966 62.3323C533.645 106.259 532.71 222.775 594.081 263.898C628.037 286.64 685.981 287.263 719.003 262.34C742.368 244.271 750.779 214.052 749.221 185.078H647.04V145.513H791.589V318.106H753.894L750.467 277.605C707.788 336.486 610.28 335.24 556.698 291.936C480.997 230.875 482.866 91.3054 559.19 31.49C634.579 -27.3909 771.34 -3.4024 788.162 100.963Z" fill="black"/>
<path fill-rule="evenodd" clip-rule="evenodd" d="M492.835 318.106H445.794L417.134 241.467H289.408L261.371 318.106H215.888L328.972 6.25526L378.505 5.63218L492.835 318.106ZM404.673 203.148L353.583 60.1515L303.115 203.148H404.673Z" fill="black"/>
<path d="M231.464 5.00916V46.7554H138.318V318.106H93.1464V46.7554H0V5.00916H231.464Z" fill="black"/>
<path d="M910.86 85.1537V95.1924L882.763 100.038C875.134 100.962 867.386 101.423 859.523 101.423H831.776V78.923H859.523C867.386 78.923 875.134 79.4999 882.763 80.6539L910.86 85.1537Z" fill="black"/>
<path d="M915.713 83.077L908.779 90.3462L885.539 74.077C879.296 69.2307 873.514 64.0386 868.196 58.5001L848.424 38.7694L864.38 22.8462L883.804 42.577C889.352 48.1156 894.558 53.9999 899.411 60.2307L915.713 83.077Z" fill="black"/>
<path d="M920.916 85.1537H910.86L906.003 57.4614C905.078 49.6153 904.614 41.8845 904.614 34.2692V6.23077H927.162V34.2692C927.162 41.8845 926.583 49.6153 925.427 57.4614L920.916 85.1537Z" fill="black"/>
<path d="M922.997 90.3462L915.713 83.077L932.016 60.2307C936.872 53.9999 942.075 48.1156 947.626 42.577L967.396 22.8462L983.352 38.7694L963.579 58.5001C958.031 64.0386 952.134 69.2307 945.891 74.077L922.997 90.3462Z" fill="black"/>
<path d="M920.916 95.1924V85.1537L948.667 80.6539C956.527 79.4999 964.274 78.923 971.903 78.923H1000V101.423H971.903C964.274 101.423 956.527 100.962 948.667 100.038L920.916 95.1924Z" fill="black"/>
<path d="M915.713 97.2692L922.997 90.3462L945.891 106.615C952.134 111.462 958.031 116.654 963.579 122.192L983.352 141.577L967.396 157.5L947.626 137.769C942.075 132.461 936.872 126.692 932.016 120.462L915.713 97.2692Z" fill="black"/>
<path d="M910.86 95.1921H920.916L925.427 123.231C926.583 130.846 927.162 138.577 927.162 146.423V174.462H904.614V146.423C904.614 138.577 905.078 130.846 906.003 123.231L910.86 95.1921Z" fill="black"/>
<path d="M908.779 90.3462L915.713 97.2692L899.411 120.462C894.558 126.692 889.352 132.461 883.804 137.769L864.38 157.5L848.424 141.577L868.196 122.192C873.514 116.654 879.296 111.462 885.539 106.615L908.779 90.3462Z" fill="black"/>
<path d="M910.86 85.1537V95.1924L882.763 100.038C875.134 100.962 867.386 101.423 859.523 101.423H831.776V78.923H859.523C867.386 78.923 875.134 79.4999 882.763 80.6539L910.86 85.1537Z" fill="black"/>
<path d="M915.713 83.077L908.779 90.3462L885.539 74.077C879.296 69.2307 873.514 64.0386 868.196 58.5001L848.424 38.7694L864.38 22.8462L883.804 42.577C889.352 48.1156 894.558 53.9999 899.411 60.2307L915.713 83.077Z" fill="black"/>
<path d="M920.916 85.1537H910.86L906.003 57.4614C905.078 49.6153 904.614 41.8845 904.614 34.2692V6.23077H927.162V34.2692C927.162 41.8845 926.583 49.6153 925.427 57.4614L920.916 85.1537Z" fill="black"/>
<path d="M922.997 90.3462L915.713 83.077L932.016 60.2307C936.872 53.9999 942.075 48.1156 947.626 42.577L967.396 22.8462L983.352 38.7694L963.579 58.5001C958.031 64.0386 952.134 69.2307 945.891 74.077L922.997 90.3462Z" fill="black"/>
<path d="M920.916 95.1924V85.1537L948.667 80.6539C956.527 79.4999 964.274 78.923 971.903 78.923H1000V101.423H971.903C964.274 101.423 956.527 100.962 948.667 100.038L920.916 95.1924Z" fill="black"/>
<path d="M915.713 97.2692L922.997 90.3462L945.891 106.615C952.134 111.462 958.031 116.654 963.579 122.192L983.352 141.577L967.396 157.5L947.626 137.769C942.075 132.461 936.872 126.692 932.016 120.462L915.713 97.2692Z" fill="black"/>
<path d="M910.86 95.1921H920.916L925.427 123.231C926.583 130.846 927.162 138.577 927.162 146.423V174.462H904.614V146.423C904.614 138.577 905.078 130.846 906.003 123.231L910.86 95.1921Z" fill="black"/>
<path d="M908.779 90.3462L915.713 97.2692L899.411 120.462C894.558 126.692 889.352 132.461 883.804 137.769L864.38 157.5L848.424 141.577L868.196 122.192C873.514 116.654 879.296 111.462 885.539 106.615L908.779 90.3462Z" fill="black"/>
<path d="M924.386 89.6539C924.386 94.846 919.875 99.3462 914.673 99.3462C909.47 99.3462 905.308 94.846 905.308 89.6539C905.308 84.4615 909.47 79.9616 914.673 79.9616C919.875 79.9616 924.386 84.4615 924.386 89.6539Z" fill="black"/>
</g>
</g>
<defs>
<clipPath id="clip0_1_130">
<rect width="1000" height="324" fill="white"/>
</clipPath>
</defs>
</svg>
