<svg width="1000" height="112" viewBox="0 0 1000 112" fill="none" xmlns="http://www.w3.org/2000/svg">
<path d="M971.814 43.571V46.7449L962.931 48.2774C960.519 48.5691 958.069 48.7152 955.582 48.7152H946.809V41.6011H955.582C958.069 41.6011 960.519 41.7835 962.931 42.1481L971.814 43.571Z" fill="black"/>
<path d="M973.348 42.9144L971.157 45.2128L963.809 40.0686C961.832 38.5364 960.005 36.8947 958.324 35.1436L952.072 28.9051L957.117 23.8705L963.261 30.1091C965.013 31.8601 966.66 33.7208 968.194 35.691L973.348 42.9144Z" fill="black"/>
<path d="M974.995 43.571H971.814L970.279 34.8152C969.987 32.3346 969.84 29.8902 969.84 27.4822V18.617H976.968V27.4822C976.968 29.8902 976.785 32.3346 976.42 34.8152L974.995 43.571Z" fill="black"/>
<path d="M975.652 45.2128L973.348 42.9144L978.505 35.691C980.04 33.7208 981.684 31.8601 983.439 30.1091L989.691 23.8705L994.737 28.9051L988.484 35.1436C986.729 36.8947 984.864 38.5364 982.891 40.0686L975.652 45.2128Z" fill="black"/>
<path d="M974.995 46.7449V43.571L983.769 42.1481C986.255 41.7835 988.705 41.6011 991.117 41.6011H1000V48.7152H991.117C988.705 48.7152 986.255 48.5691 983.769 48.2774L974.995 46.7449Z" fill="black"/>
<path d="M973.348 47.4016L975.652 45.2128L982.891 50.3569C984.864 51.8891 986.729 53.5309 988.484 55.2819L994.737 61.4109L989.691 66.4455L983.439 60.2072C981.684 58.529 980.04 56.7048 978.505 54.7346L973.348 47.4016Z" fill="black"/>
<path d="M971.814 46.7449H974.995L976.42 55.6104C976.785 58.0181 976.968 60.4625 976.968 62.9434V71.8085H969.84V62.9434C969.84 60.4625 969.987 58.0181 970.279 55.6104L971.814 46.7449Z" fill="black"/>
<path d="M971.157 45.2128L973.348 47.4016L968.194 54.7346C966.66 56.7048 965.013 58.529 963.261 60.2072L957.117 66.4455L952.072 61.4109L958.324 55.2819C960.005 53.5309 961.832 51.8891 963.809 50.3569L971.157 45.2128Z" fill="black"/>
<path d="M971.814 43.571V46.7449L962.931 48.2774C960.519 48.5691 958.069 48.7152 955.582 48.7152H946.809V41.6011H955.582C958.069 41.6011 960.519 41.7835 962.931 42.1481L971.814 43.571Z" fill="black"/>
<path d="M973.348 42.9144L971.157 45.2128L963.809 40.0686C961.832 38.5364 960.005 36.8947 958.324 35.1436L952.072 28.9051L957.117 23.8705L963.261 30.1091C965.013 31.8601 966.66 33.7208 968.194 35.691L973.348 42.9144Z" fill="black"/>
<path d="M974.995 43.571H971.814L970.279 34.8152C969.987 32.3346 969.84 29.8902 969.84 27.4822V18.617H976.968V27.4822C976.968 29.8902 976.785 32.3346 976.42 34.8152L974.995 43.571Z" fill="black"/>
<path d="M975.652 45.2128L973.348 42.9144L978.505 35.691C980.04 33.7208 981.684 31.8601 983.439 30.1091L989.691 23.8705L994.737 28.9051L988.484 35.1436C986.729 36.8947 984.864 38.5364 982.891 40.0686L975.652 45.2128Z" fill="black"/>
<path d="M974.995 46.7449V43.571L983.769 42.1481C986.255 41.7835 988.705 41.6011 991.117 41.6011H1000V48.7152H991.117C988.705 48.7152 986.255 48.5691 983.769 48.2774L974.995 46.7449Z" fill="black"/>
<path d="M973.348 47.4016L975.652 45.2128L982.891 50.3569C984.864 51.8891 986.729 53.5309 988.484 55.2819L994.737 61.4109L989.691 66.4455L983.439 60.2072C981.684 58.529 980.04 56.7048 978.505 54.7346L973.348 47.4016Z" fill="black"/>
<path d="M971.814 46.7449H974.995L976.42 55.6104C976.785 58.0181 976.968 60.4625 976.968 62.9434V71.8085H969.84V62.9434C969.84 60.4625 969.987 58.0181 970.279 55.6104L971.814 46.7449Z" fill="black"/>
<path d="M971.157 45.2128L973.348 47.4016L968.194 54.7346C966.66 56.7048 965.013 58.529 963.261 60.2072L957.117 66.4455L952.072 61.4109L958.324 55.2819C960.005 53.5309 961.832 51.8891 963.809 50.3569L971.157 45.2128Z" fill="black"/>
<path d="M976.09 44.9939C976.09 46.6356 974.665 48.0585 973.021 48.0585C971.375 48.0585 970.059 46.6356 970.059 44.9939C970.059 43.3521 971.375 41.9293 973.021 41.9293C974.665 41.9293 976.09 43.3521 976.09 44.9939Z" fill="black"/>
<path d="M22.4468 87.766V36.9415H2.18085V29.6011H50.8511V36.9415H30.8245V87.766H22.4468ZM56.0098 87.766V24.734H64.2279V49.1489C67.8981 44.3085 72.712 41.8883 78.6694 41.8883C83.1907 41.8883 86.8875 43.1915 89.7598 45.7979C92.6854 48.3511 94.1481 52.2872 94.1481 57.6064V87.766H86.0098V58.4042C86.0098 55.5851 85.212 53.3511 83.6162 51.7021C82.0205 50.0532 79.6003 49.2287 76.3556 49.2287C74.1747 49.2287 72.1535 49.7074 70.2918 50.6649C68.4301 51.5691 66.9407 52.8989 65.8237 54.6542C64.7598 56.4096 64.2279 58.5106 64.2279 60.9574V87.766H56.0098ZM107.903 87.766V42.8457H116.121V87.766H107.903ZM108.302 35.4255V25.0532H115.802V35.4255H108.302ZM129.875 87.766V42.8457H137.375L137.854 49.6277C141.577 44.5745 146.471 42.0479 152.535 42.0479C157.056 42.0479 160.753 43.3511 163.625 45.9574C166.551 48.5106 168.014 52.4468 168.014 57.7659V87.766H159.875V58.5638C159.875 55.7447 159.077 53.5106 157.482 51.8617C155.886 50.2128 153.466 49.3883 150.221 49.3883C148.04 49.3883 146.019 49.867 144.157 50.8245C142.295 51.7287 140.806 53.0585 139.689 54.8138C138.625 56.5691 138.093 58.6702 138.093 61.117V87.766H129.875ZM179.353 87.766V24.734H187.571V62.0745L207.278 42.8457H217.571L200.177 59.2819L219.246 87.766H209.512L194.512 64.7074L187.571 71.25V87.766H179.353ZM226.493 87.766V42.8457H234.711V87.766H226.493ZM226.892 35.4255V25.0532H234.392V35.4255H226.892ZM248.465 87.766V42.8457H255.965L256.444 49.6277C260.168 44.5745 265.061 42.0479 271.125 42.0479C275.646 42.0479 279.343 43.3511 282.215 45.9574C285.141 48.5106 286.604 52.4468 286.604 57.7659V87.766H278.465V58.5638C278.465 55.7447 277.668 53.5106 276.072 51.8617C274.476 50.2128 272.056 49.3883 268.811 49.3883C266.63 49.3883 264.609 49.867 262.747 50.8245C260.886 51.7287 259.396 53.0585 258.279 54.8138C257.215 56.5691 256.684 58.6702 256.684 61.117V87.766H248.465ZM315.495 101.809C310.229 101.809 306.027 100.665 302.888 98.3777C299.803 96.0904 298.048 93.0851 297.622 89.3617L305.043 87.6064C305.309 90.5319 306.479 92.5798 308.553 93.75C310.628 94.9734 313.074 95.5851 315.894 95.5851C319.564 95.5851 322.516 94.7074 324.75 92.9521C326.984 91.25 328.101 88.4308 328.101 84.4947V76.3564C326.718 78.8032 324.83 80.5851 322.436 81.7021C320.043 82.7659 317.25 83.2979 314.059 83.2979C310.282 83.2979 306.984 82.4468 304.165 80.7447C301.399 79.0425 299.271 76.6755 297.782 73.6436C296.293 70.5585 295.548 66.9681 295.548 62.8723C295.548 58.8298 296.266 55.2394 297.702 52.1011C299.191 48.9628 301.293 46.516 304.005 44.7606C306.718 42.9521 309.936 42.0479 313.66 42.0479C316.957 42.0479 319.883 42.7925 322.436 44.2819C325.043 45.7181 326.931 47.7128 328.101 50.266L328.58 42.8457H336.16V84.3351C336.16 89.5479 334.457 93.75 331.053 96.9415C327.702 100.186 322.516 101.809 315.495 101.809ZM315.814 77.3138C318.261 77.3138 320.388 76.7553 322.197 75.6383C324.059 74.4681 325.495 72.9255 326.505 71.0106C327.569 69.0425 328.101 66.8351 328.101 64.3883V61.3564C328.101 57.7394 326.931 54.7606 324.59 52.4202C322.303 50.0266 319.298 48.8298 315.574 48.8298C311.851 48.8298 308.979 50.133 306.957 52.7394C304.936 55.2925 303.926 58.6968 303.926 62.9521C303.926 67.1542 304.936 70.6117 306.957 73.3245C308.979 75.984 311.931 77.3138 315.814 77.3138ZM362.04 87.766L385.497 29.6011H395.311L418.769 87.766H409.912L404.088 72.9255H376.641L370.737 87.766H362.04ZM387.332 45.9574L379.513 65.6649H401.215L393.396 45.9574C392.864 44.6808 392.359 43.3777 391.88 42.0479C391.402 40.6649 390.896 39.2021 390.364 37.6596C389.832 39.2021 389.327 40.6649 388.848 42.0479C388.37 43.3777 387.864 44.6808 387.332 45.9574ZM425.338 87.766V42.8457H432.838L433.316 49.6277C437.04 44.5745 441.934 42.0479 447.997 42.0479C452.519 42.0479 456.215 43.3511 459.088 45.9574C462.013 48.5106 463.476 52.4468 463.476 57.7659V87.766H455.338V58.5638C455.338 55.7447 454.54 53.5106 452.944 51.8617C451.348 50.2128 448.928 49.3883 445.683 49.3883C443.503 49.3883 441.481 49.867 439.62 50.8245C437.758 51.7287 436.269 53.0585 435.152 54.8138C434.088 56.5691 433.556 58.6702 433.556 61.117V87.766H425.338ZM477.231 87.766V42.8457H485.449V87.766H477.231ZM477.63 35.4255V25.0532H485.13V35.4255H477.63ZM499.202 87.766V42.8457H506.622L507.181 50.0266C508.67 47.3138 510.612 45.3191 513.005 44.0425C515.399 42.7128 517.979 42.0479 520.745 42.0479C523.83 42.0479 526.569 42.8191 528.963 44.3617C531.356 45.9043 533.112 48.1915 534.229 51.2234C535.612 48.2447 537.606 45.984 540.213 44.4415C542.872 42.8457 545.771 42.0479 548.91 42.0479C553.697 42.0479 557.367 43.4574 559.92 46.2766C562.473 49.0425 563.75 52.7394 563.75 57.367V87.766H555.532V58.7234C555.532 55.7447 554.814 53.4574 553.378 51.8617C551.941 50.2128 549.84 49.3883 547.074 49.3883C543.67 49.3883 540.878 50.5053 538.697 52.7394C536.569 54.9734 535.505 58.0585 535.505 61.9947V87.766H527.367V59.4415C527.367 56.4628 526.675 54.0425 525.293 52.1808C523.91 50.3191 521.729 49.3883 518.75 49.3883C515.346 49.3883 512.606 50.5585 510.532 52.8989C508.457 55.1862 507.42 58.0851 507.42 61.5957V87.766H499.202ZM587.54 88.5638C582.859 88.5638 579.215 87.4202 576.609 85.133C574.056 82.7925 572.779 79.7606 572.779 76.0372C572.779 73.0585 573.444 70.6383 574.774 68.7766C576.157 66.9149 577.939 65.4787 580.12 64.4681C582.301 63.4042 584.668 62.633 587.221 62.1543L596.636 60.3989C599.029 59.9734 600.598 59.3351 601.343 58.484C602.088 57.5798 602.46 56.4096 602.46 54.9734C602.46 53.1117 601.795 51.5691 600.465 50.3457C599.136 49.0691 596.715 48.4308 593.205 48.4308C589.801 48.4308 587.088 49.0957 585.066 50.4255C583.045 51.7553 582.061 53.8032 582.114 56.5691L574.375 55.7713C574.481 51.3564 576.237 47.9787 579.641 45.6383C583.098 43.2447 587.62 42.0479 593.205 42.0479C598.79 42.0479 603.072 43.1649 606.051 45.3989C609.082 47.633 610.598 51.0372 610.598 55.6117V78.2713C610.598 79.867 610.891 80.9042 611.476 81.383C612.061 81.8617 612.699 82.1011 613.391 82.1011C613.816 82.1011 614.136 82.1011 614.348 82.1011C614.561 82.0479 614.694 81.9947 614.747 81.9415H615.226V87.766C614.694 87.9787 613.976 88.1383 613.072 88.2447C612.221 88.3511 611.582 88.4043 611.157 88.4043C608.87 88.4043 607.008 87.8457 605.572 86.7287C604.189 85.6117 603.497 83.9096 603.497 81.6223V80.1862C602.38 82.6862 600.359 84.7074 597.433 86.25C594.508 87.7925 591.21 88.5638 587.54 88.5638ZM589.614 82.0213C592.806 82.0213 595.545 81.3564 597.832 80.0266C600.173 78.6436 601.742 76.7287 602.54 74.2819V64.9468C601.902 65.2659 601.051 65.5585 599.987 65.8245C598.976 66.0904 597.673 66.383 596.077 66.7021L589.455 68.0585C586.104 68.75 583.87 69.7606 582.753 71.0904C581.689 72.4202 581.157 73.8564 581.157 75.3989C581.157 77.6862 581.955 79.3617 583.55 80.4255C585.146 81.4893 587.168 82.0213 589.614 82.0213ZM622.157 87.766V24.734H630.295V87.766H622.157ZM657.83 88.5638C652.191 88.5638 647.67 87.2606 644.266 84.6542C640.862 82.0479 639.08 78.4574 638.92 73.883L646.899 73.0053C646.899 75.7713 647.91 78.0319 649.931 79.7872C651.952 81.5425 654.665 82.4202 658.069 82.4202C660.995 82.4202 663.335 81.9149 665.09 80.9042C666.899 79.8404 667.803 78.0851 667.803 75.6383C667.803 73.6702 667.191 72.234 665.968 71.3298C664.798 70.3723 663.176 69.6808 661.101 69.2553C659.027 68.7766 656.713 68.2713 654.16 67.7393C649.585 66.7287 646.207 65.2128 644.027 63.1915C641.899 61.117 640.835 58.3511 640.835 54.8936C640.835 51.0106 642.378 47.8989 645.463 45.5585C648.548 43.2181 652.67 42.0479 657.83 42.0479C663.043 42.0479 667.245 43.1915 670.436 45.4787C673.628 47.766 675.356 51.1968 675.622 55.7713L667.723 56.8085C667.723 54.2021 666.899 52.1011 665.25 50.5053C663.601 48.9096 661.048 48.1117 657.59 48.1117C654.878 48.1117 652.777 48.6968 651.287 49.867C649.851 50.984 649.133 52.4468 649.133 54.2553C649.133 56.5425 650.117 58.1915 652.085 59.2021C654.106 60.2128 657.324 61.1436 661.739 61.9947C664.771 62.5266 667.351 63.2713 669.479 64.2287C671.66 65.1862 673.335 66.5425 674.505 68.2979C675.676 70.0532 676.261 72.4202 676.261 75.3989C676.261 79.3351 674.745 82.5266 671.713 84.9734C668.734 87.367 664.106 88.5638 657.83 88.5638ZM727.34 88.5638C721.915 88.5638 717.314 87.3404 713.537 84.8936C709.761 82.3936 706.862 78.9362 704.84 74.5213C702.872 70.0532 701.888 64.867 701.888 58.9628C701.888 52.7925 702.979 47.4734 705.16 43.0053C707.34 38.484 710.452 35 714.495 32.5532C718.59 30.1064 723.484 28.883 729.176 28.883C733.91 28.883 738.032 29.6543 741.543 31.1968C745.106 32.6862 748.005 34.7872 750.239 37.5C752.473 40.2128 753.989 43.3511 754.787 46.9149L746.33 48.6702C745.532 45 743.644 42.0479 740.665 39.8138C737.686 37.5798 733.883 36.4628 729.255 36.4628C723.404 36.4628 718.83 38.3245 715.532 42.0479C712.287 45.7713 710.665 51.2766 710.665 58.5638C710.665 66.117 712.314 71.7287 715.612 75.3989C718.91 79.0691 723.271 80.9042 728.697 80.9042C732.207 80.9042 735.293 80.2394 737.952 78.9096C740.665 77.5266 742.793 75.5851 744.335 73.0851C745.878 70.5851 746.649 67.633 746.649 64.2287H730.771V57.367H755.665V87.766H748.803L747.846 76.9149C746.463 80.3723 743.936 83.1915 740.266 85.3723C736.649 87.5 732.34 88.5638 727.34 88.5638ZM767.005 87.766V42.8457H774.346L774.825 49.4681C775.995 47.1808 777.484 45.4255 779.293 44.2021C781.154 42.9787 783.282 42.367 785.676 42.367C787.324 42.367 788.548 42.5266 789.346 42.8457V50.5851H788.787C787.936 50.266 786.899 50.1064 785.676 50.1064C782.644 50.1064 780.197 51.0372 778.335 52.8989C776.527 54.7606 775.489 57.2606 775.223 60.3989V87.766H767.005ZM813.032 88.5638C808.67 88.5638 804.867 87.6064 801.622 85.6915C798.431 83.7234 795.957 81.0106 794.202 77.5532C792.447 74.0957 791.569 70.0532 791.569 65.4255C791.569 60.6915 792.447 56.5957 794.202 53.1383C796.011 49.6277 798.511 46.9149 801.702 45C804.947 43.0319 808.723 42.0479 813.032 42.0479C817.34 42.0479 821.09 43.0319 824.282 45C827.473 46.9149 829.947 49.6277 831.702 53.1383C833.457 56.5957 834.335 60.6649 834.335 65.3457C834.335 70.0266 833.457 74.1223 831.702 77.633C829.947 81.0904 827.473 83.7766 824.282 85.6915C821.09 87.6064 817.34 88.5638 813.032 88.5638ZM812.952 81.5425C817.101 81.5425 820.319 80.1064 822.606 77.234C824.947 74.3617 826.117 70.3723 826.117 65.266C826.117 60.1064 824.947 56.117 822.606 53.2979C820.319 50.4787 817.128 49.0691 813.032 49.0691C808.83 49.0691 805.559 50.5319 803.218 53.4574C800.931 56.3298 799.787 60.2925 799.787 65.3457C799.787 70.4521 800.931 74.4415 803.218 77.3138C805.559 80.133 808.803 81.5425 812.952 81.5425ZM859.162 88.5638C854.003 88.5638 850.067 87.1808 847.354 84.4149C844.641 81.5957 843.285 77.8723 843.285 73.2447V42.8457H851.503V72.5266C851.503 75.2925 852.354 77.4468 854.056 78.9894C855.758 80.4787 858.019 81.2234 860.838 81.2234C864.402 81.2234 867.274 80.1862 869.455 78.1117C871.636 76.0372 872.726 73.3245 872.726 69.9734V42.8457H880.944V87.766H873.364L872.965 80.984C871.582 83.3245 869.641 85.1862 867.141 86.5691C864.694 87.8989 862.035 88.5638 859.162 88.5638ZM892.295 101.09V42.8457H899.795L900.354 50.5053C901.63 47.8457 903.598 45.7713 906.258 44.2819C908.918 42.7925 911.949 42.0479 915.354 42.0479C919.343 42.0479 922.774 42.9787 925.646 44.8404C928.519 46.7021 930.726 49.3617 932.269 52.8191C933.864 56.2234 934.662 60.266 934.662 64.9468C934.662 69.734 933.864 73.9096 932.269 77.4734C930.673 80.984 928.412 83.7234 925.487 85.6915C922.561 87.6064 919.13 88.5638 915.194 88.5638C912.003 88.5638 909.104 87.8989 906.497 86.5691C903.944 85.1862 901.923 83.1383 900.433 80.4255V101.09H892.295ZM900.433 67.5C900.433 71.7553 901.604 75.1596 903.944 77.7128C906.338 80.2128 909.529 81.4628 913.519 81.4628C917.614 81.4628 920.753 80.0532 922.934 77.234C925.168 74.3617 926.285 70.2659 926.285 64.9468C926.285 59.8936 925.168 55.984 922.934 53.2181C920.753 50.4521 917.641 49.0691 913.598 49.0691C909.662 49.0691 906.471 50.3191 904.024 52.8191C901.63 55.266 900.433 58.5638 900.433 62.7128V67.5Z" fill="black"/>
</svg>
